<!-- Generator: Adobe Illustrator 25.0.1, SVG Export Plug-In  -->
<svg version="1.1" xmlns="http://www.w3.org/2000/svg" xmlns:xlink="http://www.w3.org/1999/xlink" x="0px" y="0px" width="48.4px"
	 height="28.9px" viewBox="0 0 48.4 28.9" style="overflow:visible;enable-background:new 0 0 48.4 28.9;" xml:space="preserve">
<style type="text/css">
	.st0{fill:#6FBE44;}
</style>
<defs>
</defs>
<path class="st0" d="M1,28.9c-0.5,0-1-0.4-1-1V1c0-0.5,0.4-1,1-1h40.5c0.5,0,1,0.4,1,1V15h1.3c0.5,0,1,0.4,1,1V18h2.8
	c0.5,0,0.9,0.4,0.9,1v9c0,0.5-0.4,1-0.9,1H1z M46.5,27v-1.1h-5.6V27H46.5z M39,27v-1.1h-5.6V27H39z M31.5,27v-1.1H7
	c-0.5,0-1-0.4-1-1c0-1.1-0.9-2.1-2.1-2.1c-0.5,0-1-0.4-1-1V7c0-0.5,0.4-1,1-1C5.1,6,6,5.1,6,4c0-0.5,0.4-1,1-1h28.5c0.5,0,1,0.4,1,1
	c0,1.1,0.9,2.1,2.1,2.1c0.5,0,1,0.4,1,1V15h1.1V1.9H1.9V27H31.5z M46.5,24v-1.1h-5.6V24H46.5z M39,24v-1.1h-5.6V24H39z M31.5,24V19
	c0-0.5,0.4-1,1-1h2.8V16c0-0.5,0.4-1,1-1h1.3V7.8c-1.4-0.4-2.5-1.5-2.9-2.9H7.8C7.4,6.3,6.3,7.4,4.9,7.8v13.3
	c1.4,0.4,2.5,1.5,2.9,2.9H31.5z M46.5,21v-1.1h-5.6V21H46.5z M39,21v-1.1h-5.6V21H39z M42.8,18v-1.1h-5.6V18H42.8z M21.2,22.2
	c-4.2,0-7.7-3.5-7.7-7.7s3.5-7.7,7.7-7.7c4.2,0,7.7,3.5,7.7,7.7S25.5,22.2,21.2,22.2z M21.2,8.7c-3.2,0-5.8,2.6-5.8,5.8
	s2.6,5.8,5.8,5.8s5.8-2.6,5.8-5.8S24.4,8.7,21.2,8.7z M21.3,18.4c-0.9,0-1.6-0.2-2.3-0.7c-0.6-0.4-1.1-1-1.4-1.8h-1v-1.2h0.8
	c0-0.1,0-0.2,0-0.3c0-0.1,0-0.2,0-0.3h-0.8V13h1c0.3-0.7,0.7-1.3,1.4-1.8c0.7-0.5,1.5-0.7,2.3-0.7c0.8,0,1.5,0.2,2.2,0.6
	c0.6,0.4,1.1,1,1.4,1.7l0.1,0.3h-1.9l0-0.1c-0.2-0.4-0.4-0.6-0.7-0.8C22,12.1,21.7,12,21.3,12c-0.5,0-0.9,0.1-1.3,0.3
	c-0.3,0.2-0.5,0.4-0.7,0.6h2.1v1.2H19c0,0.1,0,0.2,0,0.3s0,0.2,0,0.3h2.5V16h-2.1c0.2,0.3,0.4,0.5,0.7,0.6c0.4,0.2,0.8,0.3,1.3,0.3
	c0.4,0,0.8-0.1,1.1-0.3c0.3-0.2,0.5-0.4,0.7-0.7l0-0.1l0.1-0.1H25l-0.1,0.3c-0.3,0.7-0.8,1.3-1.4,1.7C22.8,18.2,22.1,18.4,21.3,18.4
	z M32.5,16.9c-1.4,0-2.5-1.1-2.5-2.5c0-1.4,1.1-2.5,2.5-2.5s2.5,1.1,2.5,2.5C34.9,15.8,33.8,16.9,32.5,16.9z M32.5,13.9
	c-0.3,0-0.6,0.2-0.6,0.6s0.2,0.6,0.6,0.6s0.6-0.2,0.6-0.6S32.8,13.9,32.5,13.9z M10,16.9c-1.4,0-2.5-1.1-2.5-2.5
	c0-1.4,1.1-2.5,2.5-2.5c1.4,0,2.5,1.1,2.5,2.5C12.4,15.8,11.3,16.9,10,16.9z M10,13.9c-0.3,0-0.6,0.2-0.6,0.6S9.7,15,10,15
	s0.6-0.2,0.6-0.6S10.3,13.9,10,13.9z"/>
</svg>
