<!-- Generator: Adobe Illustrator 25.0.1, SVG Export Plug-In  -->
<svg version="1.1" xmlns="http://www.w3.org/2000/svg" xmlns:xlink="http://www.w3.org/1999/xlink" x="0px" y="0px" width="48.1px"
	 height="34.3px" viewBox="0 0 48.1 34.3" style="overflow:visible;enable-background:new 0 0 48.1 34.3;" xml:space="preserve">
<style type="text/css">
	.st0{fill:#6FBE44;}
</style>
<defs>
</defs>
<g>
	<path class="st0" d="M36.5,2.1c-0.6-0.6-1.7-1.3-2.7-1.3L26.9,0l-0.1,0c-0.5,0-1,0.1-1.5,0.3c-2.9-0.3-6.5,1.2-9.3,4
		c-2.2,2.2-3.6,4.8-3.9,7.2c-0.7,0.4-1.4,0.9-2,1.5c-2,2-2.7,4.8-2.1,7.4L7,21.3c-0.2,0.2-0.3,0.4-0.3,0.7l-0.2,2l-2.1,0.3
		c-0.5,0.1-0.9,0.5-0.9,1l-0.2,2l-2.2,0.3c-0.5,0.1-0.9,0.5-0.9,1L0,32.7c0,0.6,0.4,1,0.9,1.1l4.3,0.5c0,0,0.1,0,0.1,0
		c0.3,0,0.6-0.1,0.8-0.3l7.8-7.8c0.6,0.1,1.2,0.2,1.8,0.2c2.1,0,4.1-0.8,5.6-2.3c1.5-1.5,2.3-3.5,2.3-5.6c0-0.6-0.1-1.2-0.2-1.8
		c0.7-0.4,1.4-0.9,2-1.4l9.3,9.3c0.8,0.8,1.8,1.2,2.9,1.2c0,0,0.1,0,0.1,0c1.1,0,2.1-0.4,2.8-1.2l6.4-6.4c0.8-0.8,1.2-1.8,1.2-2.9
		c0-1.1-0.5-2.1-1.2-2.9L36.5,2.1z M19.7,22.6c-1.5,1.5-3.8,2.1-5.9,1.4c0,0,0,0-0.1,0c0,0-0.1,0-0.1,0c0,0-0.1,0-0.1,0
		c0,0-0.1,0-0.1,0c0,0-0.1,0-0.1,0c0,0-0.1,0-0.1,0c0,0-0.1,0-0.1,0c0,0-0.1,0-0.1,0c0,0-0.1,0-0.1,0c0,0-0.1,0-0.1,0.1
		c0,0-0.1,0-0.1,0.1c0,0,0,0,0,0L5,32.1l-2.8-0.3l0.1-2.3l2.1-0.3c0.5-0.1,0.9-0.5,0.9-1l0.2-2L7.6,26c0.5-0.1,0.9-0.5,0.9-1
		l0.2-2.5l1.1-1.1c0,0,0,0,0,0c0,0,0.1-0.1,0.1-0.1c0,0,0-0.1,0.1-0.1c0,0,0-0.1,0-0.1c0,0,0-0.1,0-0.1c0,0,0-0.1,0-0.1
		c0,0,0-0.1,0-0.1c0,0,0-0.1,0-0.1c0,0,0-0.1,0-0.1c0,0,0-0.1,0-0.1c0,0,0-0.1,0-0.1c0,0,0,0,0-0.1c-0.7-2.1-0.2-4.4,1.4-5.9
		c0.5-0.5,1.2-1,1.9-1.3c0,0,0,0,0,0c0.7-0.3,1.4-0.4,2.2-0.4h0c1.5,0,3,0.6,4.1,1.7c0.4,0.4,0.7,0.8,1,1.3
		c-0.3,0.1-0.5,0.2-0.8,0.3c-0.2-0.4-0.4-0.7-0.7-1.1c-1.3-1.3-3.5-1.3-4.8,0c-1.3,1.3-1.3,3.5,0,4.8c0.7,0.7,1.5,1,2.4,1
		s1.7-0.3,2.4-1c0.4-0.4,0.7-1,0.9-1.6c0.4-0.1,0.8-0.3,1.3-0.4c0,0.3,0.1,0.5,0.1,0.8C21.4,20.1,20.8,21.5,19.7,22.6z M17.2,16.4
		c-0.6-0.1-1.1,0.4-1.2,1c-0.1,0.6,0.4,1.1,1,1.2c0.1,0,0.2,0,0.4,0c-0.5,0.2-1,0.1-1.4-0.3c-0.5-0.5-0.5-1.3,0-1.8
		c0.2-0.2,0.6-0.4,0.9-0.4c0.3,0,0.6,0.1,0.8,0.3C17.5,16.4,17.3,16.4,17.2,16.4z M21.2,12.9c-1.5-1.5-3.5-2.3-5.6-2.3c0,0,0,0,0,0
		c-0.4,0-0.8,0-1.2,0.1c0.5-1.7,1.6-3.5,3.1-5c1.6-1.6,3.4-2.7,5.1-3.1c-0.3,0.6-0.4,1.3-0.4,1.9l0.8,7c0,0.7,0.4,1.6,0.9,2.2
		c-0.4,0.4-0.8,0.7-1.3,1C22.2,14.1,21.8,13.5,21.2,12.9z M45.4,16.7l-6.4,6.4c-0.8,0.8-2,0.7-2.8-0.1l-9.3-9.3
		c1-1.1,1.8-2.3,2.4-3.5c0.9,0,1.7-0.4,2.3-1c0.6-0.6,1-1.5,1-2.4c0-0.9-0.3-1.7-1-2.4c-1.3-1.3-3.4-1.3-4.7,0
		c-1.3,1.3-1.3,3.4,0,4.7c0,0,0,0,0,0c0.1,0.1,0.2,0.2,0.4,0.3c-0.4,0.9-1,1.8-1.7,2.6c-0.2-0.3-0.3-0.6-0.3-0.7l-0.8-7
		c0-0.6,0.2-1.2,0.7-1.7c0.4-0.4,1-0.7,1.7-0.7l6.9,0.8l0.1,0c0.3,0,0.9,0.3,1.3,0.7l10.3,10.3c0.4,0.4,0.6,0.9,0.6,1.4
		C45.9,15.9,45.7,16.4,45.4,16.7z M28.3,6.1c0.2-0.2,0.5-0.4,0.9-0.4s0.6,0.1,0.9,0.4c0.2,0.2,0.4,0.5,0.4,0.9
		c0,0.3-0.1,0.6-0.3,0.8c0-0.1,0-0.2,0.1-0.3c0.1-0.6-0.3-1.1-0.9-1.2c-0.6-0.1-1.1,0.3-1.2,0.9c0,0.1,0,0.1,0,0.2
		C27.9,6.9,28,6.4,28.3,6.1z"/>
</g>
</svg>
