<svg id="Layer_1" data-name="Layer 1" xmlns="http://www.w3.org/2000/svg" viewBox="0 0 112 36"><defs><style>.cls-1{fill:#6fbe44;}.cls-2{fill:#fff;}</style></defs><path class="cls-1" d="M107.89,0H4.11A4.09,4.09,0,0,0,0,4.07V31.93A4.09,4.09,0,0,0,4.11,36H107.89A4.09,4.09,0,0,0,112,31.93V4.07A4.09,4.09,0,0,0,107.89,0Z"/><path class="cls-2" d="M31.41,23.5v4H29a5.93,5.93,0,0,1-4-1.26,5.23,5.23,0,0,1-1.44-4.12V16H21.64V12h1.89V8.25h4.75V12h3.11V16H28.28v6.22a1.31,1.31,0,0,0,.33,1,1.58,1.58,0,0,0,1.11.31Z"/><path class="cls-2" d="M49.31,12V27.52H44.56V25.41a5.1,5.1,0,0,1-2,1.65,6,6,0,0,1-2.74.63,6.13,6.13,0,0,1-3.14-.79,5.39,5.39,0,0,1-2.11-2.29,7.81,7.81,0,0,1-.75-3.53V12h4.72v8.41a3.39,3.39,0,0,0,.81,2.42,2.82,2.82,0,0,0,2.16.86,2.88,2.88,0,0,0,2.2-.86,3.43,3.43,0,0,0,.8-2.42V12Z"/><path class="cls-2" d="M61.38,23.5v4H59a5.9,5.9,0,0,1-4-1.26,5.2,5.2,0,0,1-1.45-4.12V16H51.6V12h1.89V8.25h4.75V12h3.11V16H58.24v6.22a1.31,1.31,0,0,0,.33,1,1.6,1.6,0,0,0,1.11.31Z"/><path class="cls-2" d="M72.69,23.5v4H70.28a5.93,5.93,0,0,1-4-1.26,5.23,5.23,0,0,1-1.44-4.12V16H62.92V12h1.89V8.25h4.75V12h3.1V16h-3.1v6.22a1.31,1.31,0,0,0,.33,1A1.58,1.58,0,0,0,71,23.5Z"/><path class="cls-2" d="M78.16,26.77A7.06,7.06,0,0,1,75.3,24a8.36,8.36,0,0,1-1-4.22,8.25,8.25,0,0,1,1-4.21,7.18,7.18,0,0,1,2.89-2.79,9.19,9.19,0,0,1,8.22,0,7.16,7.16,0,0,1,2.88,2.79,8.15,8.15,0,0,1,1.06,4.21A8.15,8.15,0,0,1,89.29,24a7.1,7.1,0,0,1-2.91,2.79,8.71,8.71,0,0,1-4.13,1A8.5,8.5,0,0,1,78.16,26.77Zm6.41-4.13a4,4,0,0,0,1-2.86,4,4,0,0,0-.93-2.86,3,3,0,0,0-2.29-1,3,3,0,0,0-2.31,1,4.1,4.1,0,0,0-.91,2.88,4.14,4.14,0,0,0,.9,2.86,2.94,2.94,0,0,0,2.26,1A3.12,3.12,0,0,0,84.57,22.64Z"/></svg>