<!-- Generator: Adobe Illustrator 25.0.1, SVG Export Plug-In  -->
<svg version="1.1" xmlns="http://www.w3.org/2000/svg" xmlns:xlink="http://www.w3.org/1999/xlink" x="0px" y="0px" width="47.7px"
	 height="34.1px" viewBox="0 0 47.7 34.1" style="overflow:visible;enable-background:new 0 0 47.7 34.1;" xml:space="preserve">
<style type="text/css">
	.st0{fill:#6FBE44;}
</style>
<defs>
</defs>
<g>
	<path class="st0" d="M47.6,13.1l-6-8.5c0-2.6-2.1-4.6-4.7-4.6c-2.3,0-4.2,1.6-4.5,3.9L23.4,13h-1.2c-0.2,0-0.4-0.1-0.5-0.3
		l-2.8-5.9c-0.2-0.3-0.4-0.7-0.6-0.9c0.6-0.3,1.1-0.7,1.5-1.2l1.5-1.9c0.3-0.3,0.2-0.8-0.1-1.1c-0.1-0.1-0.3-0.2-0.5-0.2H3.8
		C3,1.5,2.4,2.2,2.4,3v16.6c0,2.1,1.7,3.7,3.7,3.7h2.5v1.6h-4c-2.6,0-4.6,2.1-4.6,4.6c0,2.6,2.1,4.6,4.6,4.6c0,0,0,0,0,0h20
		c2.6,0,4.6-2.1,4.6-4.6s-2.1-4.6-4.6-4.6c0,0,0,0,0,0h-3.9v-1.6h4c2.1,0,3.7-1.7,3.7-3.7v-2.1l6.4-8.6c1.2,0.6,2.6,0.6,3.9,0l4.2,6
		v4.6h-3.1c-0.9-1.5-2.6-2.3-4.3-2.3l-0.7,0c-0.4,0-0.8,0.4-0.8,0.8c0,0.1,0,0.2,0.1,0.3l1.9,4c0.6,1.1,1.8,1.9,3.1,1.9h4.4
		c2.3,0,4.1-1.9,4.1-4.1v-6.4C47.7,13.4,47.6,13.2,47.6,13.1z M3.9,3.1H19l-0.5,0.6c-0.5,0.6-1.2,1-2,1H3.9V3.1z M21.2,26.4
		c-1.6,1.7-1.6,4.4,0,6.1H8.1c1.6-1.7,1.6-4.4,0-6.1L21.2,26.4z M1.6,29.5c0-1.7,1.4-3.1,3.1-3.1c1.7,0,3.1,1.4,3.1,3.1
		c0,1.7-1.4,3.1-3.1,3.1c0,0,0,0,0,0C2.9,32.5,1.6,31.2,1.6,29.5z M27.7,29.5c0,1.7-1.4,3.1-3.1,3.1s-3.1-1.4-3.1-3.1
		c0-1.7,1.4-3.1,3.1-3.1C26.3,26.4,27.7,27.8,27.7,29.5z M19.2,24.8h-9v-1.6h9V24.8z M26.9,19.6c0,1.2-1,2.2-2.2,2.2H6.1
		c-1.2,0-2.2-1-2.2-2.2V6.2h11.6c0.8,0,1.6,0.5,1.9,1.2l2.8,5.9c0.4,0.7,1.1,1.2,1.9,1.2h2.6c1.2,0,2.2,1,2.2,2.2V19.6z M28.2,15.2
		c-0.5-1.1-1.5-1.9-2.7-2.2L32.5,6c0.2,0.7,0.6,1.4,1.2,1.9L28.2,15.2z M33.8,4.6c0-1.7,1.4-3.1,3.1-3.1S40,2.9,40,4.6
		c0,1.7-1.4,3.1-3.1,3.1C35.2,7.7,33.8,6.3,33.8,4.6L33.8,4.6z M40.1,8c0.4-0.4,0.7-0.8,1-1.3l4.6,6.5l-1.6,0.5L40.1,8z M43.6,22.6
		h-4.4c-0.7,0-1.3-0.4-1.7-1l-1.4-2.8c1.1,0.1,2.1,0.8,2.6,1.8c0.1,0.3,0.4,0.4,0.7,0.4h4.1c0.6,0,1-0.5,1-1v-4.8l1.6-0.5V20
		C46.1,21.4,45,22.6,43.6,22.6z M15.4,29.5c0-0.4,0.3-0.8,0.8-0.8c0,0,0,0,0,0h1.6c0.4,0,0.8,0.4,0.8,0.8s-0.4,0.8-0.8,0.8h-1.6
		C15.7,30.2,15.4,29.9,15.4,29.5C15.4,29.5,15.4,29.5,15.4,29.5z M10.7,29.5c0-0.4,0.3-0.8,0.8-0.8c0,0,0,0,0,0h1.6
		c0.4,0,0.8,0.4,0.8,0.8s-0.4,0.8-0.8,0.8h-1.6C11.1,30.2,10.7,29.9,10.7,29.5C10.7,29.5,10.7,29.5,10.7,29.5z M16.1,8.2
		C16,8,15.7,7.8,15.4,7.8H6.3c-0.4,0-0.8,0.3-0.8,0.8c0,0,0,0,0,0v10.8c0,0.4,0.3,0.8,0.8,0.8c0,0,0,0,0,0h10.9
		c1.7,0,3.1-1.4,3.1-3.1c0-0.5-0.1-0.9-0.3-1.4L16.1,8.2z M7,13.9c0-0.4,0.4-0.8,0.8-0.8c0.4,0,0.8,0.4,0.8,0.8v1.9
		c0,0.6,0.5,1.2,1.2,1.2H12c0.4,0,0.8,0.4,0.8,0.8c0,0.4-0.4,0.8-0.8,0.8H7V13.9z M18.4,17.9c-0.3,0.4-0.8,0.7-1.3,0.7h-3
		c0.1-0.3,0.1-0.5,0.1-0.8c0-1.3-1.1-2.3-2.3-2.3h-1.8v-1.5c0-1.3-1.1-2.3-2.3-2.3c-0.3,0-0.5,0.1-0.8,0.1V9.4H15l2.7,5.4h-1.4
		L15,13.5l0.4-0.4c0.3-0.3,0.3-0.8,0-1.1c-0.3-0.3-0.8-0.3-1.1,0c0,0,0,0,0,0l-1.8,1.8c-0.3,0.3-0.3,0.8,0,1.1c0,0,0,0,0,0
		c0.3,0.3,0.8,0.3,1.1,0l0.3-0.3l1.5,1.5c0.1,0.1,0.3,0.2,0.6,0.2h2.5C18.7,16.8,18.7,17.4,18.4,17.9z"/>
</g>
</svg>
