<!-- Generator: Adobe Illustrator 25.0.1, SVG Export Plug-In  -->
<svg version="1.1" xmlns="http://www.w3.org/2000/svg" xmlns:xlink="http://www.w3.org/1999/xlink" x="0px" y="0px" width="49px"
	 height="35.5px" viewBox="0 0 49 35.5" style="overflow:visible;enable-background:new 0 0 49 35.5;" xml:space="preserve">
<style type="text/css">
	.st0{fill:#6FBE44;}
</style>
<defs>
</defs>
<path class="st0" d="M11.3,35.5c-1.5,0-2.7-1.2-2.7-2.7v-1H2.7c-1.5,0-2.7-1.2-2.7-2.7V11.9c0-1.5,1.2-2.7,2.7-2.7h25.9V4.5h-4.2
	c-0.4,1.7-1.9,2.8-3.6,2.8H3.7C1.7,7.4,0,5.7,0,3.7C0,1.7,1.7,0,3.7,0h17.2c1.7,0,3.2,1.2,3.6,2.9h5c0.5,0,0.8,0.4,0.8,0.8v5.5h3
	c1.5,0,2.7,1.2,2.7,2.7v2.5h2.2v-1.1c0-0.4,0.3-0.7,0.6-0.8l9.2-2.4c0.1,0,0.1,0,0.2,0c0.2,0,0.4,0.1,0.5,0.2
	c0.2,0.2,0.3,0.4,0.3,0.6V30c0,0.1,0,0.1,0,0.2c-0.1,0.4-0.4,0.6-0.8,0.6c-0.1,0-0.1,0-0.2,0l-9.2-2.4c-0.4-0.1-0.6-0.4-0.6-0.8
	v-1.1h-2.2v2.5c0,1.5-1.2,2.7-2.7,2.7h-5.8v1c0,1.5-1.2,2.7-2.7,2.7H11.3z M10.2,32.8c0,0.6,0.5,1.1,1.1,1.1h13.3
	c0.6,0,1.1-0.5,1.1-1.1v-1H10.2V32.8z M2.7,10.8c-0.6,0-1.1,0.5-1.1,1.1v17.2c0,0.6,0.5,1.1,1.1,1.1h30.5c0.6,0,1.1-0.5,1.1-1.1
	V11.9c0-0.6-0.5-1.1-1.1-1.1H2.7z M47.4,29V12l-7.6,2v13L47.4,29z M38.1,24.9v-8.8h-2.2v8.8H38.1z M3.7,1.6c-1.1,0-2,0.9-2,2
	s0.9,2,2,2h17.2c1.1,0,2-0.9,2-2s-0.9-2-2-2H3.7z M3.7,28.9c-0.5,0-0.8-0.4-0.8-0.8V12.9c0-0.5,0.4-0.8,0.8-0.8h17.2
	c0.5,0,0.8,0.4,0.8,0.8v15.2c0,0.5-0.4,0.8-0.8,0.8H3.7z M20,27.3V13.7H4.5v13.6H20z M9.4,26.1c-0.1,0-0.3,0-0.4-0.1
	c-0.3-0.1-0.4-0.4-0.4-0.7v-9.5c0-0.2,0-0.3,0.1-0.4c0.2-0.2,0.4-0.4,0.7-0.4c0.2,0,0.3,0,0.4,0.1l7.6,4.8c0.1,0.1,0.2,0.2,0.3,0.3
	c0.1,0.2,0.2,0.4,0.1,0.6c0,0.2-0.2,0.4-0.4,0.5l-7.6,4.8C9.7,26,9.6,26.1,9.4,26.1z M10.2,23.8l5.3-3.3l-5.3-3.3V23.8z M26.5,25.1
	c-0.5,0-0.8-0.4-0.8-0.8v-3.8c0-0.5,0.4-0.8,0.8-0.8h5.7c0.5,0,0.8,0.4,0.8,0.8v3.8c0,0.5-0.4,0.8-0.8,0.8H26.5z M31.4,23.5v-2.2
	h-4.1v2.2H31.4z M26.5,17.5c-0.5,0-0.8-0.4-0.8-0.8v-3.8c0-0.5,0.4-0.8,0.8-0.8h5.7c0.5,0,0.8,0.4,0.8,0.8v3.8
	c0,0.5-0.4,0.8-0.8,0.8H26.5z M31.4,15.9v-2.2h-4.1v2.2H31.4z"/>
</svg>
