<!-- Generator: Adobe Illustrator 25.0.1, SVG Export Plug-In  -->
<svg version="1.1" xmlns="http://www.w3.org/2000/svg" xmlns:xlink="http://www.w3.org/1999/xlink" x="0px" y="0px" width="47.7px"
	 height="28.8px" viewBox="0 0 47.7 28.8" style="overflow:visible;enable-background:new 0 0 47.7 28.8;" xml:space="preserve">
<style type="text/css">
	.st0{fill:#6FBE44;}
</style>
<defs>
</defs>
<path class="st0" d="M40.3,12.5c-0.1,0-0.2,0-0.3,0l-3.1-6.7h0.2c0.4,0.4,0.9,0.6,1.4,0.6H41c0.5,0,1-0.4,1-1V1c0-0.5-0.4-1-1-1
	h-2.6c-0.6,0-1.1,0.3-1.4,0.6h-6c-0.5,0-1,0.4-1,1v1l-1.1-1c-0.2-0.2-0.4-0.3-0.7-0.3H25c-0.5,0-1,0.4-1,1s0.4,1,1,1h2.9l2.2,2.1
	l1.3,5l-1.8,4c-0.8,1.7-2.5,2.8-4.3,2.8H23c-1.3,0-2.4-1.1-2.4-2.4V12v-2c0-1.3-1-2.3-2.3-2.3H8.6c-1.3,0-2.3,1-2.3,2.3v1.2
	C2.7,11.8,0,14.9,0,18.7v4.5c0,0.5,0.4,1,1,1h2.3c0.7,2.7,3.2,4.7,6.1,4.7c2.9,0,5.3-2,6.1-4.7h15.9c0,0,0,0,0,0c0,0,0,0,0,0h2.9
	c0.7,2.7,3.2,4.7,6.1,4.7c3.5,0,6.3-2.8,6.3-6.3s-2.8-6.3-6.3-6.3c-3.4,0-6.1,2.7-6.3,6h-1.8c0.2-4.3,3.7-7.8,8.1-7.8
	c2.1,0,4.2,0.8,5.7,2.4c0.4,0.4,1,0.4,1.3,0c0.4-0.4,0.4-1,0-1.3C45.5,13.5,43,12.5,40.3,12.5z M40.1,1.9v2.6l-1.6,0l0-2.6H40.1z
	 M32,2.5h4.6v1.3h-1.2H32V2.5z M8.2,10c0-0.2,0.2-0.4,0.4-0.4h9.8c0.2,0,0.4,0.2,0.4,0.4V11H8.2V10z M9.3,26.9c-1.8,0-3.4-1.1-4-2.8
	h8.1C12.7,25.7,11.1,26.9,9.3,26.9z M40.3,18.2c2.4,0,4.4,2,4.4,4.4s-2,4.4-4.4,4.4c-2.4,0-4.4-2-4.4-4.4S37.9,18.2,40.3,18.2z
	 M30.3,22.2H1.9v-3.5c0-3.2,2.6-5.7,5.7-5.7h11.1v1.8c0,2.3,1.9,4.3,4.3,4.3h2.4c2.6,0,4.9-1.5,6-3.9l2-4.3c0.1-0.2,0.1-0.4,0.1-0.6
	l-1.1-4.4h2.5l3.2,7C33.7,13.8,30.5,17.6,30.3,22.2z"/>
</svg>
