<!-- Generator: Adobe Illustrator 25.0.1, SVG Export Plug-In  -->
<svg version="1.1" xmlns="http://www.w3.org/2000/svg" xmlns:xlink="http://www.w3.org/1999/xlink" x="0px" y="0px" width="45.8px"
	 height="34.6px" viewBox="0 0 45.8 34.6" style="overflow:visible;enable-background:new 0 0 45.8 34.6;" xml:space="preserve">
<style type="text/css">
	.st0{fill:#6FBE44;}
</style>
<defs>
</defs>
<g>
	<path class="st0" d="M42.8,7.8c1.2-0.4,1.8-1.7,1.4-2.9c-0.4-1.2-1.7-1.8-2.9-1.4c-1.2,0.4-1.8,1.7-1.4,2.9
		c0.2,0.5,0.5,0.9,0.9,1.2c-5.3,2.5-11.4,2.5-16.7,0c1.1-0.6,1.5-2,0.8-3.1c-0.6-1.1-2-1.5-3.1-0.8s-1.5,2-0.8,3.1
		c0.2,0.3,0.4,0.6,0.8,0.8C16.4,10,10.3,10,5,7.6c1.1-0.6,1.5-2,0.8-3.1C5.1,3.3,3.7,3,2.7,3.6c-1.1,0.6-1.5,2-0.8,3.1
		c0.3,0.5,0.7,0.8,1.2,1v11.6H0V27h9.8l-1.3,6.7c-0.1,0.4,0.2,0.8,0.6,0.9c0.1,0,0.1,0,0.2,0h27.5c0.4,0,0.8-0.3,0.8-0.8
		c0-0.1,0-0.1,0-0.2L36,27h9.8v-7.6h-3.1V7.8z M42,4.8c0.4,0,0.8,0.3,0.8,0.8S42.4,6.4,42,6.4c-0.4,0-0.8-0.3-0.8-0.8
		S41.6,4.8,42,4.8z M32.3,11c3.1,0,6.1-0.7,9-2v10.3h-2.3v-6.1H23.7V9.1C26.4,10.3,29.3,11,32.3,11z M32.1,25.5H13.7v-4.6h18.3V25.5
		z M29.8,14.8v4.6H16v-4.6H29.8z M14.5,19.3H8.4v-4.6h6.1V19.3z M31.3,19.3v-4.6h6.1v4.6H31.3z M22.9,4.8c0.4,0,0.8,0.3,0.8,0.8
		s-0.3,0.8-0.8,0.8c-0.4,0-0.8-0.3-0.8-0.8S22.5,4.8,22.9,4.8z M3.8,4.8c0.4,0,0.8,0.3,0.8,0.8S4.2,6.4,3.8,6.4S3.1,6,3.1,5.6
		S3.4,4.8,3.8,4.8z M4.6,9.1c2.7,1.2,5.6,1.9,8.6,1.9c3.1,0,6.1-0.7,9-2v4.2H6.9v6.1H4.6V9.1z M1.5,20.9h10.7v4.6H1.5V20.9z
		 M35.7,33.1H10.1l1.2-6.1h1.5l-0.8,4.6h4.7V30h-2.9l0.5-3.1h20.1L35.7,33.1z M44.3,22.4h-9.2v1.5h9.2v1.5H33.6v-4.6h10.7V22.4z"/>
	<path class="st0" d="M29.4,6.1h6.1c0.4,0,0.8-0.3,0.8-0.8c0-0.1,0-0.2-0.1-0.3l-1.5-3.1c-0.1-0.3-0.4-0.4-0.7-0.4h-0.8V0h-1.5v1.5
		h-0.8c-0.3,0-0.6,0.2-0.7,0.4L28.7,5c-0.2,0.4,0,0.8,0.3,1C29.2,6.1,29.3,6.1,29.4,6.1z M31.4,3.1h2.1l0.8,1.5h-3.6L31.4,3.1z"/>
	<path class="st0" d="M9.9,6.1H16c0.4,0,0.8-0.3,0.8-0.8c0-0.1,0-0.2-0.1-0.3l-1.5-3.1c-0.1-0.3-0.4-0.4-0.7-0.4h-0.8V0h-1.5v1.5
		h-0.8c-0.3,0-0.6,0.2-0.7,0.4L9.2,5c-0.2,0.4,0,0.8,0.3,1C9.7,6.1,9.8,6.1,9.9,6.1z M11.9,3.1H14l0.8,1.5h-3.6L11.9,3.1z"/>
	<rect x="3.1" y="22.4" class="st0" width="4.6" height="1.5"/>
	<rect x="9.2" y="22.4" class="st0" width="1.5" height="1.5"/>
	<rect x="18.3" y="30" class="st0" width="1.5" height="1.5"/>
	<rect x="33.6" y="16.3" class="st0" width="1.5" height="1.5"/>
</g>
</svg>
