<!-- Generator: Adobe Illustrator 25.0.1, SVG Export Plug-In  -->
<svg version="1.1" xmlns="http://www.w3.org/2000/svg" xmlns:xlink="http://www.w3.org/1999/xlink" x="0px" y="0px" width="48.6px"
	 height="31.3px" viewBox="0 0 48.6 31.3" style="overflow:visible;enable-background:new 0 0 48.6 31.3;" xml:space="preserve">
<style type="text/css">
	.st0{fill:#6FBE44;}
</style>
<defs>
</defs>
<g>
	<g>
		<path class="st0" d="M33.9,12.9h1.8c0.5,0,0.9-0.4,0.9-0.9V4.6c0-0.5-0.4-0.9-0.9-0.9h-1.8c-2,0-3.7,1.7-3.7,3.7v1.8
			C30.2,11.2,31.8,12.9,33.9,12.9z M32,7.4c0-1,0.8-1.8,1.8-1.8h0.9v5.5h-0.9c-1,0-1.8-0.8-1.8-1.8V7.4z"/>
		<path class="st0" d="M10.3,8.2c0.6,1.1,1.8,1.9,3.1,1.9h0.7c0.6,1.1,1.8,1.8,3.2,1.8v4.6h-0.9c-0.5,0-0.9,0.4-0.9,0.9
			s0.4,0.9,0.9,0.9h0.9l0,10c0,1.4,1,2.8,2.5,2.9c1.7,0.2,3.1-1.1,3.1-2.8V18.4h0.9c0.5,0,0.9-0.4,0.9-0.9s-0.4-0.9-0.9-0.9h-0.9V12
			h3.7v1.6c0,1.7,1.4,3,3,3h4.2L33,21c0,0.3,0,0.5,0.2,0.7c0.2,0.2,0.4,0.3,0.7,0.3h2.8v1.5c0,2.4-1,4.6-1.5,5.6
			C34.8,30,34.6,30.4,35,31c0.2,0.2,0.5,0.4,0.8,0.4l3.3,0c2.3,0,4.2-1.8,4.3-4l0,0L44,16.6H44c2.5,0,4.6-2.1,4.6-4.6V4.6
			C48.6,2.1,46.6,0,44,0h-0.9H29.5c-0.9,0-1.6,0.4-2.2,0.9H17.3c-1.4,0-2.5,0.7-3.2,1.8h-0.7c-1.7,0-3.1,1.2-3.4,2.7
			C10,5.5,9.7,6.8,10.3,8.2z M13.6,4.6v3.7v0h-0.2c-0.9,0-1.7-0.7-1.7-1.7V6.3c0-0.9,0.7-1.7,1.7-1.7L13.6,4.6L13.6,4.6z M21,28.6
			c0,0.5-0.4,0.9-0.9,0.9s-0.9-0.4-0.9-0.9V18.4H21V28.6z M21,16.6h-1.8V12H21V16.6z M26.5,3v7.1h-4.6h-3.7h-0.9
			c-1,0-1.8-0.8-1.8-1.8V4.6c0-1,0.8-1.8,1.8-1.8h9.2V3z M36.6,20.3H35l0.6-3.7h1.1V20.3z M41.5,27.2c-0.1,1.3-1.2,2.3-2.5,2.3h-1.9
			c0.6-1.3,1.4-3.4,1.4-5.8v-2.5v-4.6h3.6L41.5,27.2z M42.2,14.7h-4.6h-2.8h-5.3c-0.7,0-1.2-0.5-1.2-1.2v-2.5V3
			c0-0.7,0.5-1.2,1.2-1.2h12.6V14.7z M46.8,12c0,1.5-1.2,2.8-2.8,2.8V1.8c1.5,0,2.8,1.2,2.8,2.8V12z"/>
		<path class="st0" d="M37.6,5.5c0-0.5,0.4-0.9,0.9-0.9h1.8c0.5,0,0.9,0.4,0.9,0.9s-0.4,0.9-0.9,0.9h-1.8C38,6.5,37.6,6,37.6,5.5z
			 M38.5,9.2h1.8c0.5,0,0.9-0.4,0.9-0.9s-0.4-0.9-0.9-0.9h-1.8c-0.5,0-0.9,0.4-0.9,0.9S38,9.2,38.5,9.2z M38.5,12h1.8
			c0.5,0,0.9-0.4,0.9-0.9s-0.4-0.9-0.9-0.9h-1.8c-0.5,0-0.9,0.4-0.9,0.9S38,12,38.5,12z"/>
	</g>
	<path class="st0" d="M10.4,7.4H0.9C0.4,7.4,0,7,0,6.5v0c0-0.5,0.4-0.9,0.9-0.9h9.4V7.4z"/>
</g>
</svg>
