<!-- Generator: Adobe Illustrator 25.0.1, SVG Export Plug-In  -->
<svg version="1.1" xmlns="http://www.w3.org/2000/svg" xmlns:xlink="http://www.w3.org/1999/xlink" x="0px" y="0px" width="45.9px"
	 height="31.4px" viewBox="0 0 45.9 31.4" style="overflow:visible;enable-background:new 0 0 45.9 31.4;" xml:space="preserve">
<style type="text/css">
	.st0{fill:#6FBE44;}
</style>
<defs>
</defs>
<path class="st0" d="M18.9,31.4c-1.5,0-2.9-0.6-3.9-1.8l-0.2-0.2l-0.1,0.2c-1,1.1-2.4,1.8-3.9,1.8c-2.1,0-4.1-1.3-4.9-3.3L5.8,28
	H3.9C1.7,28,0,26.3,0,24.1V1.6C0,0.7,0.7,0,1.6,0h29.1c0.9,0,1.6,0.7,1.6,1.6V23h12.5c0.6,0,1.2,0.5,1.2,1.2s-0.5,1.2-1.2,1.2h-2.2
	v2.2c0,0.6-0.5,1.2-1.2,1.2s-1.2-0.5-1.2-1.2v-2.2h-8.1l0,0.1c-0.5,1.5-2,2.6-3.7,2.6h-4.6l-0.1,0.1C22.9,30.1,21,31.4,18.9,31.4z
	 M18.9,23.3c-1.6,0-2.9,1.3-2.9,2.9c0,1.6,1.3,2.9,2.9,2.9s2.9-1.3,2.9-2.9C21.8,24.6,20.5,23.3,18.9,23.3z M10.7,23.3
	c-1.6,0-2.9,1.3-2.9,2.9c0,1.6,1.3,2.9,2.9,2.9s2.9-1.3,2.9-2.9C13.6,24.6,12.3,23.3,10.7,23.3z M18.9,20.9c2.6,0,4.9,2,5.2,4.6
	l0,0.2h4.3c0.9,0,1.6-0.7,1.6-1.6v-7H2.3v7c0,0.9,0.7,1.6,1.6,1.6h1.6l0-0.2c0.3-2.6,2.6-4.6,5.2-4.6c1.5,0,2.9,0.6,3.9,1.8l0.1,0.2
	l0.2-0.2C15.9,21.6,17.4,20.9,18.9,20.9z M2.3,14.8H30V2.3H2.3V14.8z"/>
</svg>
